# xmcd
#
# Track frame offsets: 
#        150
#        17405
#        33218
#        43657
#        61030
#        77749
#        109346
#        123329
#        142373
#        156348
#        175657
#
# Disc length: 2878 seconds
#
# Revision: 0
# Processed by: cddbd v1.5.2PL0 Copyright (c) Steve Scherf et al.
# Submitted via: ExactAudioCopyFreeDBPlugin 1.0
#
DISCID=8b0b3c0b
DTITLE=Sean Wheeler and Zander Schlosss - Greetings from Sean and Zander L
DTITLE=ive
DYEAR=2011
DGENRE=Blues
TTITLE0=so low she rose
TTITLE1=2nd and hill
TTITLE2=good pussy
TTITLE3=comin' as i'm goin'
TTITLE4=phantom switchman
TTITLE5=song about songs
TTITLE6=stranger in a strange land
TTITLE7=i wish i would've
TTITLE8=walk thee invisible
TTITLE9=retablo
TTITLE10=spiritual
EXTD=
EXTT0=
EXTT1=
EXTT2=
EXTT3=
EXTT4=
EXTT5=
EXTT6=
EXTT7=
EXTT8=
EXTT9=
EXTT10=
PLAYORDER=
